<?xml version="1.0" standalone="no"?>
<!DOCTYPE svg PUBLIC "-//W3C//DTD SVG 20010904//EN"
 "http://www.w3.org/TR/2001/REC-SVG-20010904/DTD/svg10.dtd">
<svg version="1.0" xmlns="http://www.w3.org/2000/svg"
 width="24.000000pt" height="24.000000pt" viewBox="0 0 24.000000 24.000000"
 preserveAspectRatio="xMidYMid meet">

<g transform="translate(0.000000,24.000000) scale(0.100000,-0.100000)"
fill="#000000" stroke="none">
<path d="M32 205 c-27 -30 -32 -42 -32 -85 0 -44 4 -55 35 -85 30 -31 41 -35
85 -35 44 0 55 4 85 35 31 30 35 41 35 85 0 44 -4 55 -35 85 -31 31 -40 35
-87 34 -47 0 -57 -4 -86 -34z m114 -120 c31 -31 33 -37 20 -50 -8 -8 -31 -15
-50 -15 -33 0 -36 2 -36 30 0 23 4 30 20 30 11 0 20 5 20 10 0 6 -4 10 -10 10
-5 0 -10 5 -10 10 0 17 9 12 46 -25z"/>
</g>
</svg>
